<mxfile>
    <diagram id="wMqRLWRd7nqYQM558t5j" name="Page-1">
        <mxGraphModel dx="466" dy="300" grid="1" gridSize="10" guides="1" tooltips="1" connect="1" arrows="1" fold="1" page="1" pageScale="1" pageWidth="80" pageHeight="80" math="0" shadow="0">
            <root>
                <mxCell id="0"/>
                <mxCell id="1" parent="0"/>
                <mxCell id="EVJP5asHt5twMA5dQcB_-9" value="" style="rounded=0;whiteSpace=wrap;html=1;strokeColor=none;" parent="1" vertex="1">
                    <mxGeometry x="105" y="110" width="510" height="260" as="geometry"/>
                </mxCell>
                <mxCell id="eulNJtFfLloYrVbK-d2Q-2" value="" style="rounded=1;whiteSpace=wrap;html=1;dashed=1;fillColor=none;strokeColor=#333333;" parent="1" vertex="1">
                    <mxGeometry x="115" y="210" width="490" height="150" as="geometry"/>
                </mxCell>
                <mxCell id="EVJP5asHt5twMA5dQcB_-1" style="edgeStyle=orthogonalEdgeStyle;rounded=0;orthogonalLoop=1;jettySize=auto;html=1;entryX=0.5;entryY=0;entryDx=0;entryDy=0;exitX=0.5;exitY=1;exitDx=0;exitDy=0;curved=1;startArrow=classic;startFill=1;strokeColor=#333333;" parent="1" source="xf3yS8weDeZ-gSXv8qe_-4" target="xf3yS8weDeZ-gSXv8qe_-6" edge="1">
                    <mxGeometry relative="1" as="geometry">
                        <Array as="points">
                            <mxPoint x="365" y="190"/>
                            <mxPoint x="185" y="190"/>
                        </Array>
                    </mxGeometry>
                </mxCell>
                <mxCell id="EVJP5asHt5twMA5dQcB_-2" style="edgeStyle=orthogonalEdgeStyle;curved=1;rounded=0;orthogonalLoop=1;jettySize=auto;html=1;entryX=0.5;entryY=0;entryDx=0;entryDy=0;startArrow=classic;startFill=1;strokeColor=#333333;" parent="1" source="xf3yS8weDeZ-gSXv8qe_-4" target="eulNJtFfLloYrVbK-d2Q-1" edge="1">
                    <mxGeometry relative="1" as="geometry"/>
                </mxCell>
                <mxCell id="EVJP5asHt5twMA5dQcB_-3" style="edgeStyle=orthogonalEdgeStyle;curved=1;rounded=0;orthogonalLoop=1;jettySize=auto;html=1;startArrow=classic;startFill=1;strokeColor=#333333;" parent="1" source="xf3yS8weDeZ-gSXv8qe_-4" target="xf3yS8weDeZ-gSXv8qe_-7" edge="1">
                    <mxGeometry relative="1" as="geometry"/>
                </mxCell>
                <mxCell id="EVJP5asHt5twMA5dQcB_-4" style="edgeStyle=orthogonalEdgeStyle;curved=1;rounded=0;orthogonalLoop=1;jettySize=auto;html=1;startArrow=classic;startFill=1;strokeColor=#333333;" parent="1" source="xf3yS8weDeZ-gSXv8qe_-4" target="xf3yS8weDeZ-gSXv8qe_-8" edge="1">
                    <mxGeometry relative="1" as="geometry">
                        <Array as="points">
                            <mxPoint x="365" y="190"/>
                            <mxPoint x="540" y="190"/>
                        </Array>
                    </mxGeometry>
                </mxCell>
                <mxCell id="xf3yS8weDeZ-gSXv8qe_-4" value="Behavior" style="rounded=1;whiteSpace=wrap;html=1;fillColor=#dae8fc;strokeColor=#6c8ebf;" parent="1" vertex="1">
                    <mxGeometry x="315" y="130" width="100" height="40" as="geometry"/>
                </mxCell>
                <mxCell id="c1SvTy-ZN4NX4iYyCSdm-1" style="edgeStyle=orthogonalEdgeStyle;rounded=0;orthogonalLoop=1;jettySize=auto;html=1;entryX=0;entryY=0.5;entryDx=0;entryDy=0;startArrow=classic;startFill=1;strokeColor=#333333;curved=1;dashed=1;" parent="1" source="xf3yS8weDeZ-gSXv8qe_-6" target="bCRFSeNs1ZLz8eNJlQRy-1" edge="1">
                    <mxGeometry relative="1" as="geometry">
                        <Array as="points">
                            <mxPoint x="185" y="320"/>
                        </Array>
                    </mxGeometry>
                </mxCell>
                <mxCell id="xf3yS8weDeZ-gSXv8qe_-6" value="Camera" style="rounded=1;whiteSpace=wrap;html=1;fillColor=#dae8fc;strokeColor=#6c8ebf;" parent="1" vertex="1">
                    <mxGeometry x="135" y="230" width="100" height="40" as="geometry"/>
                </mxCell>
                <mxCell id="c1SvTy-ZN4NX4iYyCSdm-3" style="edgeStyle=orthogonalEdgeStyle;rounded=0;orthogonalLoop=1;jettySize=auto;html=1;entryX=0.5;entryY=0;entryDx=0;entryDy=0;startArrow=classic;startFill=1;strokeColor=#333333;curved=1;dashed=1;" parent="1" source="xf3yS8weDeZ-gSXv8qe_-7" target="bCRFSeNs1ZLz8eNJlQRy-1" edge="1">
                    <mxGeometry relative="1" as="geometry"/>
                </mxCell>
                <mxCell id="xf3yS8weDeZ-gSXv8qe_-7" value="Navigation" style="rounded=1;whiteSpace=wrap;html=1;fillColor=#dae8fc;strokeColor=#6c8ebf;" parent="1" vertex="1">
                    <mxGeometry x="375" y="230" width="100" height="40" as="geometry"/>
                </mxCell>
                <mxCell id="xf3yS8weDeZ-gSXv8qe_-8" value="Manipulator" style="rounded=1;whiteSpace=wrap;html=1;fillColor=#dae8fc;strokeColor=#6c8ebf;" parent="1" vertex="1">
                    <mxGeometry x="495" y="230" width="90" height="40" as="geometry"/>
                </mxCell>
                <mxCell id="c1SvTy-ZN4NX4iYyCSdm-2" style="edgeStyle=orthogonalEdgeStyle;rounded=0;orthogonalLoop=1;jettySize=auto;html=1;startArrow=classic;startFill=1;strokeColor=#333333;curved=1;dashed=1;" parent="1" source="eulNJtFfLloYrVbK-d2Q-1" target="bCRFSeNs1ZLz8eNJlQRy-1" edge="1">
                    <mxGeometry relative="1" as="geometry"/>
                </mxCell>
                <mxCell id="eulNJtFfLloYrVbK-d2Q-1" value="Depth Camera" style="rounded=1;whiteSpace=wrap;html=1;fillColor=#dae8fc;strokeColor=#6c8ebf;" parent="1" vertex="1">
                    <mxGeometry x="255" y="230" width="100" height="40" as="geometry"/>
                </mxCell>
                <mxCell id="eulNJtFfLloYrVbK-d2Q-3" value="Gazebo Simulator" style="text;html=1;strokeColor=none;fillColor=none;align=right;verticalAlign=middle;whiteSpace=wrap;rounded=0;dashed=1;" parent="1" vertex="1">
                    <mxGeometry x="295" y="330" width="300" height="20" as="geometry"/>
                </mxCell>
                <mxCell id="eulNJtFfLloYrVbK-d2Q-14" value="" style="rounded=1;whiteSpace=wrap;html=1;fillColor=#dae8fc;strokeColor=#6c8ebf;" parent="1" vertex="1">
                    <mxGeometry x="115" y="120" width="40" height="20" as="geometry"/>
                </mxCell>
                <mxCell id="hlaBwW5kQEn4N7mB56Rf-1" value="ROS 2 Node" style="text;html=1;strokeColor=none;fillColor=none;align=left;verticalAlign=middle;whiteSpace=wrap;rounded=0;" parent="1" vertex="1">
                    <mxGeometry x="165" y="120" width="80" height="20" as="geometry"/>
                </mxCell>
                <mxCell id="hlaBwW5kQEn4N7mB56Rf-3" value="" style="endArrow=classic;html=1;endFill=1;startArrow=classic;startFill=1;strokeColor=#333333;" parent="1" edge="1">
                    <mxGeometry width="50" height="50" relative="1" as="geometry">
                        <mxPoint x="115" y="150" as="sourcePoint"/>
                        <mxPoint x="155" y="150" as="targetPoint"/>
                    </mxGeometry>
                </mxCell>
                <mxCell id="hlaBwW5kQEn4N7mB56Rf-4" value="ROS 2 Topic / Service" style="text;html=1;strokeColor=none;fillColor=none;align=left;verticalAlign=middle;whiteSpace=wrap;rounded=0;" parent="1" vertex="1">
                    <mxGeometry x="165" y="140" width="130" height="20" as="geometry"/>
                </mxCell>
                <mxCell id="c1SvTy-ZN4NX4iYyCSdm-4" style="edgeStyle=orthogonalEdgeStyle;rounded=0;orthogonalLoop=1;jettySize=auto;html=1;entryX=0.5;entryY=1;entryDx=0;entryDy=0;startArrow=classic;startFill=1;strokeColor=#333333;curved=1;dashed=1;" parent="1" source="bCRFSeNs1ZLz8eNJlQRy-1" target="xf3yS8weDeZ-gSXv8qe_-8" edge="1">
                    <mxGeometry relative="1" as="geometry"/>
                </mxCell>
                <mxCell id="bCRFSeNs1ZLz8eNJlQRy-1" value="World" style="rounded=1;whiteSpace=wrap;html=1;strokeColor=#6c8ebf;dashed=1;fillColor=none;" parent="1" vertex="1">
                    <mxGeometry x="315" y="300" width="100" height="40" as="geometry"/>
                </mxCell>
                <mxCell id="c1SvTy-ZN4NX4iYyCSdm-5" value="" style="endArrow=classic;html=1;endFill=1;startArrow=classic;startFill=1;strokeColor=#333333;dashed=1;" parent="1" edge="1">
                    <mxGeometry width="50" height="50" relative="1" as="geometry">
                        <mxPoint x="115" y="170" as="sourcePoint"/>
                        <mxPoint x="155" y="170" as="targetPoint"/>
                    </mxGeometry>
                </mxCell>
                <mxCell id="c1SvTy-ZN4NX4iYyCSdm-6" value="Gazebo Shared Memory" style="text;html=1;strokeColor=none;fillColor=none;align=left;verticalAlign=middle;whiteSpace=wrap;rounded=0;" parent="1" vertex="1">
                    <mxGeometry x="165" y="160" width="135" height="20" as="geometry"/>
                </mxCell>
            </root>
        </mxGraphModel>
    </diagram>
</mxfile>